<?xml version="1.0" standalone="no"?>
<!DOCTYPE svg PUBLIC "-//W3C//DTD SVG 20010904//EN"
 "http://www.w3.org/TR/2001/REC-SVG-20010904/DTD/svg10.dtd">
<svg version="1.0" xmlns="http://www.w3.org/2000/svg"
 width="530.000000pt" height="213.000000pt" viewBox="0 0 530.000000 213.000000"
 preserveAspectRatio="xMidYMid meet">

<g transform="translate(0.000000,213.000000) scale(0.100000,-0.100000)"
fill="#000000" stroke="none">
<path d="M1868 2125 c-3 -3 -140 -7 -304 -9 -322 -4 -816 -14 -1194 -24 l-235
-7 -3 -37 c-2 -28 1 -37 15 -41 17 -4 17 -5 1 -6 -27 -2 -23 -39 5 -44 20 -4
19 -4 -4 -6 l-26 -1 -8 -159 c-4 -88 -4 -165 0 -170 3 -6 1 -11 -4 -11 -15 0
-14 -57 2 -63 9 -3 9 -7 -2 -20 -11 -14 -11 -17 0 -17 11 0 11 -2 1 -8 -13 -9
-23 -129 -37 -432 -4 -80 -11 -148 -16 -151 -5 -3 -9 -39 -9 -80 1 -41 -1 -83
-3 -94 -3 -11 -8 -85 -11 -165 -4 -80 -9 -172 -11 -205 -3 -33 -7 -103 -10
-155 -2 -52 -7 -123 -11 -157 l-6 -61 338 -1 c257 0 340 2 347 12 7 9 10 9 14
0 6 -16 518 -19 528 -3 7 12 45 13 45 2 0 -13 449 -15 465 -2 9 8 15 8 20 0 9
-15 75 -13 75 3 0 8 4 7 10 -3 9 -13 10 -13 10 0 0 12 2 13 9 1 7 -11 9 -11
14 0 4 10 6 10 6 2 1 -16 521 -19 521 -3 0 6 9 10 20 10 11 0 20 -4 20 -10 0
-15 47 -12 53 3 4 10 6 10 6 0 1 -17 122 -17 140 0 11 9 14 9 18 0 6 -15 53
-18 53 -3 0 6 7 10 15 10 8 0 15 -4 15 -10 0 -14 73 -13 87 1 8 8 13 8 17 0
11 -17 436 -15 436 2 0 8 4 7 10 -3 9 -13 10 -13 10 0 0 10 3 11 8 4 11 -17
1053 -19 1064 -2 6 11 8 11 8 0 0 -9 73 -12 335 -12 261 1 334 3 329 13 -5 9
-3 9 7 0 9 -9 51 -13 132 -13 l119 0 -7 53 c-4 28 -12 58 -19 66 -8 11 -8 15
1 18 9 3 11 21 7 61 -6 73 -14 244 -13 301 0 25 -5 48 -13 53 -8 6 -9 11 -3
14 12 5 7 186 -5 194 -8 6 -25 263 -29 453 -1 56 -4 67 -18 68 -11 0 -13 3 -5
6 14 6 17 163 3 163 -5 0 -11 42 -14 93 -13 293 -17 338 -32 353 -8 9 -15 21
-14 27 0 9 2 8 6 0 9 -24 23 -13 23 17 0 17 -4 30 -10 30 -5 0 -10 25 -10 55
0 51 -12 72 -23 43 -4 -9 -6 -7 -6 3 -1 13 -14 16 -63 18 -35 0 -175 5 -313
11 -234 9 -354 10 -973 14 -133 0 -242 4 -242 8 0 12 -1432 9 -1447 -4 -9 -7
-13 -7 -13 1 0 13 -89 12 -107 -2 -9 -6 -13 -6 -13 2 0 11 -72 16 -82 6z
m1307 -14 c3 -5 1 -12 -5 -16 -5 -3 -10 1 -10 9 0 18 6 21 15 7z m-1728 -17
c-3 -3 -12 -4 -19 -1 -8 3 -5 6 6 6 11 1 17 -2 13 -5z m2943 -4 c0 -5 -4 -10
-10 -10 -5 0 -10 5 -10 10 0 6 5 10 10 10 6 0 10 -4 10 -10z m-315 -69 c281
-6 606 -13 723 -17 179 -6 212 -5 212 7 0 11 2 11 10 -1 7 -12 13 -12 27 -4
17 10 18 5 15 -87 -2 -56 1 -99 6 -99 5 0 15 -117 22 -260 7 -143 16 -260 20
-260 4 0 10 -55 13 -122 4 -68 10 -170 13 -228 3 -58 7 -121 8 -140 1 -19 3
-74 4 -122 2 -71 5 -88 17 -88 16 0 20 -17 16 -60 -2 -14 0 -71 4 -127 6 -86
10 -103 23 -104 15 -1 15 -2 0 -6 -15 -4 -16 -15 -11 -104 l6 -99 -34 -1 c-19
0 -119 0 -224 0 -117 -1 -195 -5 -202 -11 -9 -7 -17 -7 -25 0 -15 11 -137 11
-155 -1 -8 -5 -13 -4 -13 2 0 15 -77 14 -83 -1 -4 -9 -8 -10 -14 -2 -12 15
-415 17 -425 1 -6 -9 -8 -9 -8 1 0 9 -43 12 -180 12 -161 0 -209 -7 -167 -23
6 -3 2 -6 -10 -6 -16 -1 -21 3 -17 14 5 13 -18 15 -172 14 -123 0 -183 -4
-193 -12 -12 -9 -13 -9 -7 1 6 9 -36 12 -193 12 -154 0 -201 -3 -201 -12 0
-10 -2 -10 -8 -2 -11 18 -1812 19 -1825 2 -7 -10 -10 -10 -14 0 -6 15 -33 16
-33 1 0 -9 -4 -9 -14 0 -9 8 -140 11 -450 10 -241 0 -440 2 -443 5 -3 3 6 207
21 453 14 246 26 469 26 496 0 26 5 47 10 47 6 0 10 37 10 90 0 50 4 90 8 90
7 0 24 251 38 565 6 134 8 142 42 149 15 3 189 8 387 11 198 4 363 9 367 11 3
2 153 4 332 5 179 0 327 3 330 7 6 10 1793 4 2411 -7z m1195 -1731 c0 -5 -4
-10 -10 -10 -5 0 -10 5 -10 10 0 6 5 10 10 10 6 0 10 -4 10 -10z m-4180 -210
c0 -5 -2 -10 -4 -10 -3 0 -8 5 -11 10 -3 6 -1 10 4 10 6 0 11 -4 11 -10z
m3130 0 c0 -5 -4 -10 -10 -10 -5 0 -10 5 -10 10 0 6 5 10 10 10 6 0 10 -4 10
-10z m-3843 -6 c-3 -3 -12 -4 -19 -1 -8 3 -5 6 6 6 11 1 17 -2 13 -5z m1070 0
c-3 -3 -12 -4 -19 -1 -8 3 -5 6 6 6 11 1 17 -2 13 -5z"/>
<path d="M1838 1893 c-27 -2 -49 -8 -49 -14 -1 -5 -2 -15 -3 -21 -4 -27 27
-48 71 -48 27 0 42 4 38 10 -8 13 28 13 41 0 7 -7 80 -9 200 -8 l189 3 0 40 0
40 -220 1 c-121 0 -241 -1 -267 -3z"/>
<path d="M2520 1860 l0 -40 85 0 85 0 0 40 0 40 -85 0 -85 0 0 -40z"/>
<path d="M2970 1861 c0 -39 1 -40 43 -46 23 -4 60 -5 82 -3 39 3 40 4 40 43
l0 40 -82 3 -83 3 0 -40z"/>
<path d="M1170 1845 l0 -45 178 0 c220 0 222 1 222 51 l0 39 -200 0 -200 0 0
-45z"/>
<path d="M3629 1863 c-5 -16 -12 -34 -14 -40 -3 -10 25 -13 120 -13 69 0 125
3 125 7 0 4 -5 22 -12 40 l-12 33 -98 0 c-98 0 -99 0 -109 -27z"/>
<path d="M4350 1840 l0 -40 80 0 c78 0 80 1 80 24 0 51 -7 56 -86 56 l-74 0 0
-40z"/>
<path d="M510 1860 c0 -5 1 -11 2 -12 1 -2 -4 -12 -10 -24 -17 -32 -2 -39 81
-36 l77 4 0 39 0 39 -75 0 c-43 0 -75 -4 -75 -10z"/>
<path d="M2457 1793 c-15 -15 -5 -23 28 -23 34 0 35 -1 35 -40 l0 -40 85 0 85
0 0 40 c0 38 2 40 30 40 20 0 30 5 30 15 0 13 -23 15 -143 15 -79 0 -147 -3
-150 -7z"/>
<path d="M2930 1785 c0 -8 9 -15 20 -15 17 0 20 -7 20 -40 l0 -40 85 0 85 0 0
38 c0 21 5 43 10 48 8 8 -14 13 -72 17 -127 10 -148 9 -148 -8z"/>
<path d="M1158 1783 c-89 -4 -125 -23 -43 -23 l45 0 0 -40 0 -40 79 0 c83 0
91 5 91 51 0 17 8 19 63 19 120 0 217 12 217 26 0 11 -35 14 -182 12 -101 -1
-222 -4 -270 -5z"/>
<path d="M1700 1781 c0 -10 144 -24 206 -21 61 4 64 3 64 -35 l0 -35 85 0 85
0 0 35 0 35 93 0 c66 0 99 4 113 15 17 13 -19 14 -313 15 -194 0 -333 -4 -333
-9z"/>
<path d="M3210 1780 c0 -5 11 -10 25 -10 14 0 25 5 25 10 0 6 -11 10 -25 10
-14 0 -25 -4 -25 -10z"/>
<path d="M3445 1780 c3 -5 40 -10 81 -10 l74 0 -15 -36 c-8 -20 -15 -40 -15
-45 0 -5 38 -9 85 -9 74 0 85 2 85 18 1 16 1 16 14 0 11 -14 29 -18 90 -18 80
0 89 6 61 44 -23 31 -18 36 30 36 33 0 45 4 45 15 0 13 -37 15 -271 15 -177 0
-268 -3 -264 -10z"/>
<path d="M4055 1780 c-8 -13 -1 -24 14 -19 6 3 7 10 2 18 -6 10 -10 10 -16 1z"/>
<path d="M4300 1770 c0 -5 15 -10 34 -10 33 0 35 -2 42 -45 l6 -45 74 0 74 0
0 40 0 40 69 0 c98 0 97 16 -2 23 -127 10 -297 8 -297 -3z"/>
<path d="M350 1755 c0 -12 15 -15 75 -15 69 0 75 -2 67 -17 -4 -10 -7 -24 -6
-30 1 -7 2 -18 3 -23 1 -7 30 -10 79 -8 l77 3 3 43 3 42 45 0 c24 0 44 5 44
10 0 6 -72 10 -195 10 -167 0 -195 -2 -195 -15z"/>
<path d="M1790 1663 c0 -5 40 -7 89 -5 l90 3 3 -43 3 -43 70 -3 c77 -3 95 8
95 59 0 25 4 28 38 32 20 2 -59 4 -175 5 -117 1 -213 -1 -213 -5z"/>
<path d="M2463 1663 l67 -4 0 -39 0 -40 305 0 305 0 0 39 c0 37 2 40 33 44 17
2 -21 5 -85 5 l-118 2 0 -30 0 -30 -135 0 c-75 0 -135 4 -135 9 0 5 -3 16 -6
24 -3 10 2 17 13 20 10 3 -56 4 -147 4 -91 -1 -135 -2 -97 -4z"/>
<path d="M3525 1660 c22 -4 35 -8 29 -9 -7 0 -14 -11 -17 -23 -2 -13 -8 -31
-12 -40 -6 -16 0 -18 71 -18 44 0 84 4 90 8 6 4 15 22 19 40 6 30 10 33 38 30
26 -2 32 -7 31 -25 -1 -13 3 -23 7 -23 5 0 8 -6 6 -12 -1 -10 22 -14 87 -16
78 -2 88 -1 82 14 -24 62 -23 64 40 66 l59 1 -75 7 c-98 10 -507 9 -455 0z"/>
<path d="M1080 1650 c0 -5 17 -10 38 -10 l38 0 -4 -40 -4 -40 99 0 c165 0 283
11 283 26 0 11 -23 14 -107 12 -78 -1 -108 2 -107 10 1 7 2 18 3 26 0 10 16
16 44 19 23 2 -31 4 -120 5 -103 1 -163 -2 -163 -8z"/>
<path d="M4280 1651 c0 -7 19 -11 50 -11 l50 0 0 -40 0 -40 80 0 80 0 0 39 c0
29 5 41 18 44 9 3 -8 5 -39 6 -31 0 -97 4 -147 7 -67 5 -92 4 -92 -5z"/>
<path d="M370 1640 l-85 -6 96 -2 97 -2 -2 -37 -1 -38 80 0 80 0 3 42 3 42 67
4 c37 2 -5 3 -93 3 -88 0 -198 -3 -245 -6z"/>
<path d="M2005 1550 c-77 -3 -119 -7 -92 -8 45 -2 47 -3 47 -32 l0 -30 85 0
85 0 0 30 c0 28 2 30 40 30 22 0 40 5 40 10 0 6 -15 9 -32 8 -18 -1 -96 -5
-173 -8z"/>
<path d="M2440 1550 c0 -5 20 -10 44 -10 40 0 44 -2 50 -30 l6 -30 305 0 305
0 0 30 c0 27 3 30 31 30 17 0 28 4 24 10 -4 6 -143 10 -386 10 -246 0 -379 -4
-379 -10z"/>
<path d="M1070 1540 c-20 -6 -15 -8 26 -9 l51 -1 -5 -31 -4 -30 123 2 c68 1
127 4 132 6 4 2 2 13 -3 24 -6 10 -7 19 -2 19 5 0 15 -11 22 -25 14 -26 23
-28 83 -19 33 6 37 10 37 35 0 28 0 28 73 32 39 1 -58 3 -218 4 -159 1 -301
-3 -315 -7z m100 -46 c0 -8 -4 -12 -10 -9 -5 3 -10 10 -10 16 0 5 5 9 10 9 6
0 10 -7 10 -16z"/>
<path d="M3460 1541 c25 -3 45 -11 46 -18 3 -44 1 -43 92 -43 48 0 83 4 77 8
-14 10 -17 32 -4 32 5 0 7 5 4 10 -4 6 19 10 63 10 68 0 70 0 75 -28 6 -28 8
-29 88 -35 91 -7 104 -4 89 23 -18 34 -11 39 58 43 37 2 -90 3 -283 3 -192 1
-330 -2 -305 -5z"/>
<path d="M4250 1541 c0 -7 23 -11 64 -11 63 0 65 0 71 -30 5 -22 12 -30 28
-30 12 0 45 -3 74 -6 l52 -7 3 34 3 34 93 -4 c62 -2 92 1 92 8 0 8 -55 11
-179 11 -98 0 -206 3 -240 6 -43 5 -61 3 -61 -5z"/>
<path d="M525 1530 c-82 -3 -131 -7 -109 -8 40 -2 41 -3 39 -32 -2 -26 1 -30
21 -30 13 0 24 5 24 10 0 6 5 10 11 10 5 0 7 -4 4 -10 -4 -6 15 -10 49 -10 56
0 56 0 56 30 0 29 1 30 51 30 31 0 48 4 44 10 -3 6 -14 9 -23 8 -9 -1 -84 -5
-167 -8z"/>
<path d="M770 1530 c0 -5 11 -10 24 -10 14 0 28 5 31 10 4 6 -7 10 -24 10 -17
0 -31 -4 -31 -10z"/>
<path d="M2420 1463 c-92 -7 -83 -23 13 -23 86 0 87 0 87 -25 0 -25 1 -25 85
-25 84 0 85 0 85 25 l0 25 145 0 145 0 0 -25 c0 -25 1 -25 85 -25 84 0 85 0
85 25 0 22 4 25 35 25 19 0 35 4 35 8 0 17 -602 28 -800 15z"/>
<path d="M1253 1453 c-111 -2 -183 -7 -183 -13 0 -6 16 -10 36 -10 33 0 36 -2
32 -25 l-5 -25 83 0 c78 0 83 1 86 23 3 21 7 22 136 25 108 2 132 5 132 17 0
12 -14 15 -67 13 -38 -2 -150 -4 -250 -5z"/>
<path d="M1900 1450 c0 -5 13 -10 29 -10 25 0 30 -4 33 -27 4 -33 29 -39 115
-28 48 6 53 9 53 31 0 17 5 24 20 24 11 0 20 5 20 10 0 6 -52 10 -135 10 -83
0 -135 -4 -135 -10z"/>
<path d="M3330 1450 c0 -6 35 -10 85 -10 l85 0 -10 -26 c-6 -14 -10 -27 -10
-30 0 -2 126 -4 280 -4 278 0 281 0 270 20 -9 17 -8 21 7 26 45 15 44 18 -7
25 -88 11 -700 11 -700 -1z"/>
<path d="M465 1439 c-121 -3 -221 -7 -222 -8 -2 0 -3 -6 -3 -13 0 -8 28 -9
100 -5 61 4 100 2 101 -3 1 -6 3 -14 4 -20 1 -5 3 -15 4 -21 1 -8 19 -9 59 -5
31 4 67 7 80 8 16 0 22 6 22 24 0 24 1 24 110 24 91 0 110 3 110 15 0 17 17
16 -365 4z"/>
<path d="M4215 1440 c3 -5 17 -10 31 -10 13 0 24 5 24 10 0 6 -14 10 -31 10
-17 0 -28 -4 -24 -10z"/>
<path d="M4320 1440 c0 -5 16 -10 35 -10 30 0 35 -3 35 -24 0 -27 28 -36 111
-36 46 0 49 2 49 25 0 23 4 25 45 25 33 0 45 4 45 15 0 13 -24 15 -160 15
-100 0 -160 -4 -160 -10z"/>
<path d="M1800 1359 c0 -9 24 -10 80 -6 79 5 81 5 78 -16 -3 -21 1 -22 77 -22
75 0 80 1 83 22 3 19 11 23 55 26 29 2 -44 4 -160 5 -154 1 -213 -1 -213 -9z"/>
<path d="M2488 1363 c24 -3 32 -9 32 -24 0 -17 8 -19 85 -19 77 0 85 2 85 19
0 11 8 22 18 24 9 3 -44 4 -118 4 -74 0 -120 -2 -102 -4z"/>
<path d="M2958 1363 c14 -3 22 -12 22 -24 0 -17 8 -19 85 -19 77 0 85 2 85 19
0 14 8 21 28 24 15 2 -34 4 -108 4 -74 0 -125 -2 -112 -4z"/>
<path d="M3413 1363 c41 -4 47 -7 47 -26 l0 -22 311 -1 c172 0 307 2 300 4 -6
2 -11 10 -11 18 0 10 15 14 53 16 28 1 -11 5 -88 9 -141 7 -700 9 -612 2z"/>
<path d="M1010 1350 c0 -6 27 -10 60 -10 47 0 60 -3 60 -15 0 -13 29 -15 213
-13 147 2 173 3 85 5 -102 3 -128 6 -128 18 0 10 16 15 53 18 28 2 -37 4 -145
5 -127 1 -198 -2 -198 -8z"/>
<path d="M4300 1350 c0 -5 23 -10 50 -10 43 0 50 -3 50 -20 0 -19 6 -20 208
-18 149 2 171 3 80 5 -105 3 -128 6 -128 18 0 12 16 15 73 17 58 1 49 3 -48 8
-188 11 -285 11 -285 0z"/>
<path d="M340 1340 c0 -5 23 -10 50 -10 43 0 50 -3 50 -20 0 -19 5 -20 123
-14 124 7 168 14 84 14 -34 0 -47 4 -47 15 0 10 17 15 68 18 37 2 -22 4 -130
5 -127 1 -198 -2 -198 -8z"/>
<path d="M738 1303 c23 -2 61 -2 85 0 23 2 4 4 -43 4 -47 0 -66 -2 -42 -4z"/>
<path d="M1988 1293 c-49 -2 -88 -8 -88 -13 0 -6 11 -10 25 -10 16 0 25 -6 25
-15 0 -12 16 -15 85 -15 69 0 85 3 85 15 0 8 9 15 20 15 11 0 20 7 20 15 0 11
-10 14 -42 13 -24 -1 -82 -4 -130 -5z"/>
<path d="M2430 1285 c0 -11 11 -15 45 -15 33 0 45 -4 45 -15 0 -12 16 -15 85
-15 67 0 85 3 85 14 0 10 13 16 40 18 22 2 40 8 40 13 0 6 -65 11 -170 13
-147 2 -170 0 -170 -13z"/>
<path d="M2907 1294 c-13 -13 5 -24 39 -24 24 0 34 -5 34 -15 0 -12 16 -15 85
-15 69 0 85 3 85 15 0 9 10 15 26 15 16 0 24 5 22 13 -3 9 -44 13 -144 15 -77
1 -143 0 -147 -4z"/>
<path d="M1000 1275 c0 -12 14 -15 65 -15 56 0 64 -2 58 -17 -6 -15 6 -16 138
-10 79 4 174 7 212 7 53 0 67 3 67 15 0 12 14 15 64 15 36 0 68 5 71 10 4 7
-110 10 -334 10 -296 0 -341 -2 -341 -15z"/>
<path d="M3320 1280 c0 -5 25 -10 56 -10 46 0 55 -3 50 -15 -4 -13 9 -15 88
-15 74 0 95 3 100 15 4 12 31 15 150 15 119 0 145 -3 150 -15 4 -12 25 -15
101 -15 53 0 94 4 91 9 -3 5 3 11 14 14 11 3 20 10 20 16 0 8 -120 11 -410 11
-267 0 -410 -3 -410 -10z"/>
<path d="M4290 1275 c0 -12 13 -15 60 -15 47 0 60 -3 60 -15 0 -12 17 -15 93
-15 50 0 143 -3 205 -7 111 -6 112 -6 112 16 0 19 4 21 34 16 33 -7 62 10 34
19 -7 2 -145 7 -305 10 -257 5 -293 4 -293 -9z"/>
<path d="M358 1273 c-142 -4 -161 -23 -23 -23 76 0 97 -3 101 -15 8 -20 124
-22 124 -2 0 8 3 8 9 -2 13 -21 271 -8 287 14 6 8 19 15 28 15 9 0 16 5 16 10
0 10 -242 11 -542 3z"/>
<path d="M2420 1220 c0 -5 23 -10 50 -10 28 0 50 -4 50 -10 0 -6 35 -10 85
-10 50 0 85 4 85 10 0 6 14 10 30 10 17 0 30 5 30 10 0 6 -62 10 -165 10 -103
0 -165 -4 -165 -10z"/>
<path d="M2940 1220 c0 -5 9 -10 20 -10 11 0 20 -4 20 -10 0 -16 159 -13 175
4 8 7 11 16 8 20 -11 10 -223 7 -223 -4z"/>
<path d="M1140 1210 c-58 -3 -86 -7 -62 -8 23 -1 42 -6 42 -12 0 -6 77 -10
210 -10 133 0 210 4 210 10 0 6 11 10 24 10 14 0 28 5 31 10 7 11 -268 11
-455 0z"/>
<path d="M1898 1213 c28 -2 52 -8 52 -14 0 -5 38 -9 85 -9 47 0 85 4 85 9 0 6
19 12 43 14 23 2 -39 3 -138 3 -99 0 -156 -1 -127 -3z"/>
<path d="M3370 1213 c19 -3 40 -8 45 -13 15 -12 177 -10 193 3 16 13 316 1
320 -13 5 -13 192 -13 192 0 0 6 14 10 31 10 17 0 28 4 24 10 -4 6 -154 9
-423 8 -229 0 -401 -3 -382 -5z"/>
<path d="M410 1200 c-29 -4 -35 -8 -18 -8 15 -1 30 -7 34 -14 9 -13 415 -3
423 11 4 5 20 11 36 14 17 2 -73 4 -200 4 -126 0 -250 -3 -275 -7z"/>
<path d="M4360 1203 c24 -3 47 -8 50 -12 7 -12 409 -21 416 -10 3 5 40 9 82 9
53 0 72 3 62 10 -9 6 -142 9 -335 8 -176 -1 -300 -3 -275 -5z"/>
<path d="M1025 1009 c-16 -7 -37 -18 -46 -25 -8 -8 -23 -14 -32 -14 -9 0 -17
-4 -17 -10 0 -5 -10 -19 -23 -32 -35 -36 -89 -130 -94 -163 -8 -60 -9 -141 -2
-167 4 -16 4 -28 0 -28 -4 0 -8 -7 -8 -15 0 -8 4 -15 9 -15 5 0 6 -4 3 -10 -3
-5 -2 -10 4 -10 5 0 8 -9 6 -20 -2 -11 0 -20 6 -20 5 0 9 -8 9 -18 0 -23 63
-109 68 -94 2 7 11 12 20 11 11 0 12 -2 5 -6 -7 -2 -13 -9 -13 -14 0 -11 93
-59 115 -59 8 0 15 -4 15 -10 0 -15 137 -13 143 3 4 9 6 9 6 0 1 -15 31 -18
31 -3 0 6 9 10 20 10 35 0 124 56 114 71 -3 5 -2 8 3 7 18 -6 71 51 93 98 36
81 37 140 4 215 -15 35 -31 66 -35 69 -4 3 -10 20 -14 38 -3 17 -11 32 -16 32
-5 0 -9 8 -9 18 0 10 -9 24 -19 32 -11 7 -23 31 -26 52 -5 25 -12 38 -23 38
-8 0 -12 3 -9 7 4 3 -3 13 -15 22 -28 19 -228 26 -273 10z m209 -173 c52 -31
79 -98 78 -192 -1 -62 -30 -154 -49 -154 -4 0 -21 -11 -37 -25 -24 -20 -40
-25 -87 -25 -53 0 -62 3 -94 34 -20 19 -42 51 -50 70 -17 41 -20 144 -5 198
12 43 53 96 84 108 43 18 118 11 160 -14z m-390 -62 c3 -8 2 -12 -4 -9 -6 3
-10 10 -10 16 0 14 7 11 14 -7z m16 -159 c0 -14 -2 -25 -4 -25 -2 0 -6 11 -8
25 -3 14 -1 25 3 25 5 0 9 -11 9 -25z m510 -135 c0 -5 -9 -10 -21 -10 -11 0
-17 5 -14 10 3 6 13 10 21 10 8 0 14 -4 14 -10z m-310 -110 c0 -5 -2 -10 -4
-10 -3 0 -8 5 -11 10 -3 6 -1 10 4 10 6 0 11 -4 11 -10z m145 0 c-3 -5 -12 -7
-20 -3 -21 7 -19 13 6 13 11 0 18 -4 14 -10z m73 3 c-10 -2 -26 -2 -35 0 -10
3 -2 5 17 5 19 0 27 -2 18 -5z"/>
<path d="M2137 1013 c-3 -5 -8 -25 -12 -46 -4 -20 -10 -37 -14 -37 -4 0 -8 -7
-9 -15 -1 -8 -3 -22 -4 -30 -1 -8 -6 -15 -11 -15 -6 0 -7 -3 -4 -7 4 -3 0 -15
-10 -25 -15 -17 -15 -18 4 -18 24 0 54 -29 32 -31 -8 -1 -20 -1 -26 0 -7 1
-13 -3 -13 -9 0 -5 -7 -10 -15 -10 -14 0 -19 -15 -17 -49 0 -8 -6 -20 -14 -28
-14 -14 -18 -34 -14 -62 1 -8 -4 -18 -12 -23 -10 -7 -9 -11 6 -23 19 -15 19
-15 -2 -15 -12 0 -22 -4 -22 -10 0 -31 -32 8 -35 42 0 3 -3 10 -7 14 -5 4 -8
16 -8 27 0 17 -20 69 -51 129 -5 10 -9 28 -10 40 0 13 -8 43 -18 68 -15 36
-20 41 -24 25 -4 -12 -5 -8 -3 9 2 16 0 44 -6 62 l-9 34 -125 0 -125 0 1 -175
c1 -156 3 -175 18 -176 11 0 12 -2 5 -6 -15 -6 -17 -33 -3 -33 6 0 10 -4 10
-10 0 -5 -6 -10 -12 -10 -9 0 -13 -18 -13 -59 0 -43 3 -57 13 -54 6 3 12 0 12
-6 0 -6 -7 -11 -15 -11 -22 0 -18 -31 4 -37 16 -4 19 -12 17 -40 -2 -19 -9
-39 -16 -43 -8 -5 -4 -10 12 -14 14 -4 18 -9 11 -13 -22 -8 -14 -23 12 -23 14
0 25 5 25 10 0 6 7 6 19 -1 24 -16 51 -5 51 20 0 21 -39 39 -59 27 -5 -4 -12
-2 -16 4 -4 6 4 10 19 10 56 0 57 1 55 146 0 90 -5 134 -12 138 -9 3 -8 5 1 5
8 1 12 19 12 54 l0 52 22 -35 c12 -19 21 -38 20 -42 -1 -5 2 -8 6 -8 5 0 9 -6
10 -12 0 -7 3 -23 6 -35 3 -13 8 -32 10 -42 3 -10 11 -32 19 -48 8 -15 22 -54
31 -86 9 -32 23 -60 30 -63 8 -3 12 -13 9 -24 -3 -10 0 -21 5 -24 6 -3 8 -15
5 -26 -5 -18 0 -20 38 -20 24 0 61 3 81 6 35 6 39 10 55 60 9 30 20 54 24 54
4 0 10 15 14 33 3 17 13 49 23 71 15 35 15 39 -1 47 -9 5 -14 16 -10 25 4 11
9 12 19 4 10 -9 15 -3 23 27 6 21 11 54 12 73 0 19 3 29 6 21 3 -8 12 1 23 25
l18 39 1 -115 c1 -78 4 -110 11 -100 6 10 10 11 10 3 0 -7 7 -13 16 -13 8 0
12 5 9 10 -10 15 3 12 25 -7 25 -22 25 -29 1 -29 -11 0 -17 4 -15 8 3 4 0 8
-6 8 -8 0 -10 -9 -6 -25 8 -31 3 -31 -24 -3 l-21 22 2 -117 1 -117 83 0 84 0
-2 353 -2 352 -117 3 c-64 1 -119 -1 -121 -5z m-477 -104 c0 -5 -6 -6 -13 -3
-8 3 -14 11 -14 19 0 11 4 12 14 4 7 -6 13 -15 13 -20z m605 -69 c4 -6 -6 -10
-22 -10 -22 0 -25 2 -13 10 19 12 27 12 35 0z m-375 -416 c0 -2 -7 -4 -15 -4
-8 0 -15 4 -15 10 0 5 7 7 15 4 8 -4 15 -8 15 -10z m50 -54 c0 -5 -2 -10 -4
-10 -3 0 -8 5 -11 10 -3 6 -1 10 4 10 6 0 11 -4 11 -10z"/>
<path d="M2480 666 l0 -356 86 0 86 0 -2 82 c-2 46 -2 98 -1 116 l1 32 79 0
c44 0 83 5 86 10 3 6 13 10 21 10 28 0 106 43 116 64 5 12 18 37 29 56 27 50
27 168 -2 227 -11 24 -25 43 -29 43 -5 0 -11 8 -14 18 -12 35 -63 45 -263 50
l-193 4 0 -356z m268 214 c13 0 34 -11 47 -25 35 -35 36 -114 1 -148 -14 -14
-22 -29 -18 -33 4 -5 -1 -2 -10 5 -15 11 -18 11 -18 0 0 -11 -3 -11 -11 1 -9
12 -12 13 -16 1 -5 -11 -7 -11 -14 0 -6 10 -9 11 -9 2 0 -7 -11 -13 -25 -13
l-25 0 0 111 0 112 38 -7 c20 -3 47 -6 60 -6z m-228 -95 c0 -8 -2 -15 -4 -15
-2 0 -6 7 -10 15 -3 8 -1 15 4 15 6 0 10 -7 10 -15z m380 -105 c0 -5 -7 -10
-16 -10 -8 0 -12 5 -9 10 3 6 10 10 16 10 5 0 9 -4 9 -10z"/>
<path d="M3248 1014 c-5 -4 -8 -16 -8 -26 0 -10 -3 -18 -8 -18 -11 0 -32 -77
-26 -97 5 -15 4 -16 -5 -3 -6 8 -11 13 -12 10 -6 -36 -9 -44 -16 -49 -5 -3 -8
-13 -8 -21 1 -8 -3 -25 -9 -38 -7 -18 -6 -26 5 -33 12 -7 11 -9 -2 -9 -19 0
-37 -35 -69 -135 -13 -38 -26 -72 -30 -75 -6 -5 -70 -189 -70 -202 0 -5 42 -8
93 -8 l94 0 16 60 c17 59 18 60 52 60 31 0 35 3 36 28 l1 27 10 -27 c8 -24 14
-27 42 -24 17 3 36 6 41 7 6 2 20 0 33 -5 15 -5 27 -2 37 8 21 20 43 11 43
-18 0 -13 5 -47 13 -75 12 -48 31 -66 42 -38 4 9 7 9 15 -1 6 -9 29 -12 73
-10 l64 3 -3 30 c-2 16 -7 32 -10 35 -8 5 -14 27 -15 48 0 14 -17 17 -17 2 0
-5 -11 -10 -25 -10 -14 0 -25 5 -25 10 0 6 -9 10 -20 10 -11 0 -20 4 -20 10 0
5 19 7 43 5 41 -4 44 -3 43 19 -1 13 -6 30 -12 37 -6 8 -10 21 -9 29 1 8 -3
24 -9 35 -9 19 -10 18 -23 -10 -14 -30 -14 -30 -8 -2 6 28 -9 38 -19 12 -3 -8
-10 -15 -16 -15 -7 0 -7 5 2 15 31 34 38 45 38 58 0 24 -32 107 -41 107 -5 0
-9 6 -9 13 1 6 -19 69 -42 140 l-43 127 -56 0 c-31 0 -76 3 -100 6 -24 3 -47
2 -51 -2z m102 -201 c0 -23 23 -86 37 -101 6 -7 15 -32 19 -57 3 -25 10 -48
15 -51 23 -14 -9 -24 -77 -24 -59 0 -74 -3 -74 -15 0 -8 -4 -15 -9 -15 -5 0
-6 11 -1 28 27 86 29 104 14 119 -18 19 -10 30 10 14 11 -9 15 -7 21 11 4 13
8 30 9 38 9 56 36 97 36 53z m-110 -223 c0 -5 -7 -10 -15 -10 -8 0 -15 5 -15
10 0 6 7 10 15 10 8 0 15 -4 15 -10z m7 -56 c-3 -3 -12 -4 -19 -1 -8 3 -5 6 6
6 11 1 17 -2 13 -5z m359 -81 c-11 -11 -17 4 -9 23 7 18 8 18 11 1 2 -10 1
-21 -2 -24z m-89 7 c3 -11 9 -20 14 -20 5 0 9 -9 9 -20 0 -11 5 -20 12 -20 6
0 8 -3 5 -6 -4 -4 -13 -1 -22 6 -12 10 -15 10 -15 -1 -1 -10 -4 -8 -11 4 -5 9
-7 22 -4 27 3 5 1 19 -5 30 -8 15 -8 20 1 20 6 0 13 -9 16 -20z"/>
<path d="M447 992 c-29 -11 -70 -39 -108 -76 -82 -78 -108 -148 -109 -285 0
-131 20 -192 85 -254 28 -27 70 -55 97 -65 26 -9 44 -20 42 -24 -3 -4 49 -8
115 -8 67 0 121 4 121 8 0 4 15 12 33 17 31 10 32 12 35 69 3 49 0 62 -19 79
-17 16 -23 17 -30 6 -12 -20 -170 -26 -190 -7 -8 7 -28 20 -44 28 -100 52
-101 258 -2 333 54 40 188 62 215 35 8 -8 15 -8 28 3 10 8 15 9 11 3 -4 -7 0
-17 8 -24 21 -18 27 2 23 91 -4 88 -1 87 -158 88 -75 0 -119 -5 -153 -17z
m160 -94 c-3 -8 -6 -5 -6 6 -1 11 2 17 5 13 3 -3 4 -12 1 -19z"/>
<path d="M3745 803 c1 -156 4 -207 13 -205 7 1 12 -5 12 -13 0 -8 -6 -15 -13
-15 -9 0 -12 -30 -11 -127 1 -71 2 -131 3 -135 0 -5 35 -8 76 -8 l75 0 0 238
0 237 38 -57 c20 -32 42 -58 49 -58 7 0 10 -6 7 -14 -7 -19 12 -54 47 -88 15
-15 42 -54 60 -87 31 -57 33 -59 68 -55 20 2 27 1 16 -2 -11 -4 -23 -11 -26
-16 -7 -11 33 -77 53 -89 7 -4 49 -8 95 -8 l83 -1 0 355 0 355 -44 0 c-26 0
-46 -5 -49 -12 -4 -10 -6 -10 -6 0 -1 13 -50 17 -52 5 -1 -5 -2 -88 -3 -185
-1 -132 2 -178 11 -178 6 0 15 9 18 20 3 11 11 20 17 20 6 0 7 -7 3 -17 -4
-10 -10 -26 -12 -35 -3 -10 -12 -18 -19 -18 -14 0 -17 -9 -15 -45 0 -11 -2
-14 -5 -7 -3 6 -11 12 -18 12 -7 0 -23 22 -36 50 -13 28 -27 50 -32 50 -4 0
-8 5 -8 12 0 6 -11 25 -23 42 -13 17 -32 48 -42 69 -9 20 -21 37 -26 37 -8 0
-71 91 -100 145 -16 30 -17 30 -110 33 l-94 3 0 -208z m572 -25 c-3 -7 -5 -2
-5 12 0 14 2 19 5 13 2 -7 2 -19 0 -25z m-260 -64 c-3 -3 -12 -4 -19 -1 -8 3
-5 6 6 6 11 1 17 -2 13 -5z m283 -24 c0 -5 -4 -10 -10 -10 -5 0 -10 5 -10 10
0 6 5 10 10 10 6 0 10 -4 10 -10z m10 -154 c0 -3 -4 -8 -10 -11 -5 -3 -10 -1
-10 4 0 6 5 11 10 11 6 0 10 -2 10 -4z m-115 -106 c3 -5 1 -10 -4 -10 -6 0
-11 5 -11 10 0 6 2 10 4 10 3 0 8 -4 11 -10z m49 3 c-5 -5 -12 -12 -15 -16 -3
-5 -9 -2 -12 7 -5 12 0 16 15 16 12 0 17 -3 12 -7z"/>
<path d="M4430 992 c0 -19 76 -183 89 -192 4 -3 10 -14 13 -25 4 -11 29 -72
57 -135 l51 -114 0 -113 0 -113 80 0 c44 0 81 3 81 8 1 4 3 57 5 117 4 130 5
135 16 135 5 0 6 5 3 10 -3 6 -1 10 5 10 6 0 8 5 5 10 -3 6 2 10 11 10 10 0
15 3 11 6 -3 4 14 46 39 95 24 49 42 89 39 89 -7 0 55 124 66 130 8 6 29 55
29 71 0 5 -37 9 -83 9 -70 0 -85 -3 -100 -20 -9 -11 -17 -23 -17 -26 0 -6 -28
-75 -73 -177 -21 -49 -32 -48 -42 4 -3 12 -12 33 -22 48 -10 14 -16 29 -15 34
1 4 -3 7 -9 7 -5 0 -7 5 -4 10 3 6 1 10 -5 10 -6 0 -8 5 -5 10 3 6 1 10 -4 10
-6 0 -10 6 -8 13 1 6 -3 11 -9 10 -6 -1 -10 10 -9 25 2 40 -17 52 -81 52 -42
0 -60 -4 -70 -17 -13 -17 -14 -17 -8 0 5 13 1 17 -15 17 -14 0 -21 -6 -21 -18z"/>
<path d="M1350 952 c0 -18 26 -45 48 -49 18 -4 14 9 -13 40 -28 32 -35 34 -35
9z"/>
<path d="M1405 881 c-8 -14 16 -61 32 -61 10 0 11 -5 4 -18 -7 -13 -6 -23 1
-30 7 -7 13 -21 15 -33 2 -11 10 -31 19 -42 15 -21 16 -19 10 40 -9 93 -58
181 -81 144z"/>
<path d="M1570 410 c0 -5 5 -10 10 -10 6 0 10 5 10 10 0 6 -4 10 -10 10 -5 0
-10 -4 -10 -10z"/>
<path d="M1561 314 c0 -11 3 -14 6 -6 3 7 2 16 -1 19 -3 4 -6 -2 -5 -13z"/>
</g>
</svg>
